<svg xmlns="http://www.w3.org/2000/svg" viewBox="0 0 64 80" x="0px" y="0px">
    <g>
        <path d="M60,25a1,1,0,0,0,1-1V16a1,1,0,0,0-1-1H34a1,1,0,0,0-1,1v8a1,1,0,0,0,1,1h1v2H34a1,1,0,0,0-1,1v8a1,1,0,0,0,1,1h1v2H34a1,1,0,0,0-1,1v8a1,1,0,0,0,1,1H60a1,1,0,0,0,1-1V40a1,1,0,0,0-1-1H59V37h1a1,1,0,0,0,1-1V28a1,1,0,0,0-1-1H59V25ZM35,17H59v6H35ZM59,47H35V41H59Zm-2-8H37V37H57Zm2-4H35V29H59Zm-2-8H37V25H57Z"/>
        <path d="M38,21h8a1,1,0,0,0,0-2H38a1,1,0,0,0,0,2Z"/>
        <circle cx="56" cy="20" r="1"/>
        <path d="M46,31H38a1,1,0,0,0,0,2h8a1,1,0,0,0,0-2Z"/>
        <circle cx="56" cy="32" r="1"/>
        <path d="M46,43H38a1,1,0,0,0,0,2h8a1,1,0,0,0,0-2Z"/>
        <circle cx="56" cy="44" r="1"/>
        <path d="M16,44a5,5,0,0,0,5-5,9,9,0,0,0-5.37-8.23,6,6,0,1,0-7.26,0A9,9,0,0,0,3,39a5,5,0,0,0,5,5ZM8,26a4,4,0,1,1,4,4A4,4,0,0,1,8,26ZM5,39a7,7,0,0,1,14,0,3,3,0,0,1-3,3H8A3,3,0,0,1,5,39Z"/>
        <path d="M12,15a1,1,0,0,0,1-1V8a3,3,0,0,1,3-3H48a3,3,0,0,1,3,3v2L48.6,8.2a1,1,0,0,0-1.2,1.6l4,3,.13.07.12.06a.91.91,0,0,0,.7,0l.12-.06.13-.07,4-3a1,1,0,1,0-1.2-1.6L53,10V8a5,5,0,0,0-5-5H16a5,5,0,0,0-5,5v6A1,1,0,0,0,12,15Z"/>
        <path d="M52,51a1,1,0,0,0-1,1v4a3,3,0,0,1-3,3H16a3,3,0,0,1-3-3V52l2.4,1.8a1,1,0,0,0,.6.2,1,1,0,0,0,.8-.4,1,1,0,0,0-.2-1.4l-4-3-.13-.07-.12-.06A1,1,0,0,0,12,49h0a1,1,0,0,0-.34.07l-.12.06-.13.07-4,3a1,1,0,1,0,1.2,1.6L11,52v4a5,5,0,0,0,5,5H48a5,5,0,0,0,5-5V52A1,1,0,0,0,52,51Z"/>
    </g>
</svg>