<svg xmlns="http://www.w3.org/2000/svg"
    xmlns:xlink="http://www.w3.org/1999/xlink" version="1.1" x="0px" y="0px" viewBox="0 0 100 125" enable-background="new 0 0 100 100" xml:space="preserve">
    <path d="M78.25,19.958H21.75c-0.988,0-1.792,0.804-1.792,1.792v56.5c0,0.988,0.804,1.792,1.792,1.792H78.25  c0.988,0,1.792-0.804,1.792-1.792v-56.5C80.042,20.762,79.238,19.958,78.25,19.958z M76.042,76.042H23.958V23.958h52.084V76.042z"/>
    <path d="M78.25,12.958H21.75c-4.848,0-8.792,3.944-8.792,8.792v56.5c0,4.848,3.944,8.792,8.792,8.792H78.25  c4.848,0,8.792-3.944,8.792-8.792v-56.5C87.042,16.902,83.098,12.958,78.25,12.958z M83.042,78.25c0,2.643-2.15,4.792-4.792,4.792  H21.75c-2.643,0-4.792-2.149-4.792-4.792v-56.5c0-2.643,2.15-4.792,4.792-4.792H78.25c2.643,0,4.792,2.149,4.792,4.792V78.25z"/>
</svg>