<svg xmlns="http://www.w3.org/2000/svg"
    xmlns:xlink="http://www.w3.org/1999/xlink" version="1.1" x="0px" y="0px" viewBox="0 0 64 80" style="enable-background:new 0 0 64 64;" xml:space="preserve">
    <path d="M37,17c0-2.757-2.243-5-5-5s-5,2.243-5,5s2.243,5,5,5S37,19.757,37,17z M29,17c0-1.654,1.346-3,3-3s3,1.346,3,3  s-1.346,3-3,3S29,18.654,29,17z"/>
    <path d="M12,58h4c0.552,0,1-0.447,1-1v-4c0-0.553-0.448-1-1-1h-1v-2h8v2h-1c-0.552,0-1,0.447-1,1v4c0,0.553,0.448,1,1,1h4  c0.552,0,1-0.447,1-1v-4c0-0.553-0.448-1-1-1h-1v-3c0-0.553-0.448-1-1-1h-4v-3h2c0.552,0,1-0.447,1-1v-6c0-0.553-0.448-1-1-1h-2v-3  h24v3h-2c-0.552,0-1,0.447-1,1v6c0,0.553,0.448,1,1,1h2v3h-4c-0.552,0-1,0.447-1,1v3h-1c-0.552,0-1,0.447-1,1v4c0,0.553,0.448,1,1,1  h4c0.552,0,1-0.447,1-1v-4c0-0.553-0.448-1-1-1h-1v-2h8v2h-1c-0.552,0-1,0.447-1,1v4c0,0.553,0.448,1,1,1h4c0.552,0,1-0.447,1-1v-4  c0-0.553-0.448-1-1-1h-1v-3c0-0.553-0.448-1-1-1h-4v-3h2c0.552,0,1-0.447,1-1v-6c0-0.553-0.448-1-1-1h-2v-4c0-0.553-0.448-1-1-1H33  v-4h1c0.552,0,1-0.447,1-1l0.041-1.537c0.27-0.097,0.533-0.206,0.832-0.348l1.077,1.077c0.391,0.391,1.023,0.391,1.414,0  l2.829-2.828c0.188-0.188,0.293-0.441,0.293-0.707s-0.105-0.52-0.293-0.707l-1.056-1.119c0.12-0.257,0.229-0.519,0.339-0.831H42  c0.552,0,1-0.447,1-1v-4c0-0.553-0.448-1-1-1l-1.538-0.043c-0.096-0.27-0.205-0.531-0.347-0.83l1.077-1.077  c0.188-0.188,0.293-0.441,0.293-0.707s-0.105-0.52-0.293-0.707l-2.829-2.828c-0.391-0.391-1.023-0.391-1.414,0l-1.118,1.057  c-0.257-0.121-0.521-0.23-0.832-0.34V7c0-0.553-0.448-1-1-1h-4c-0.552,0-1,0.447-1,1l-0.041,1.537  c-0.27,0.097-0.533,0.206-0.832,0.348L27.05,7.808c-0.391-0.391-1.023-0.391-1.414,0l-2.829,2.828  c-0.188,0.188-0.293,0.441-0.293,0.707s0.105,0.52,0.293,0.707l1.056,1.119c-0.12,0.257-0.229,0.519-0.339,0.831H22  c-0.552,0-1,0.447-1,1v4c0,0.553,0.448,1,1,1l1.538,0.043c0.096,0.27,0.205,0.531,0.347,0.83l-1.077,1.077  c-0.188,0.188-0.293,0.441-0.293,0.707s0.105,0.52,0.293,0.707l2.829,2.828c0.391,0.391,1.023,0.391,1.414,0l1.118-1.057  c0.257,0.121,0.521,0.23,0.832,0.34V27c0,0.553,0.448,1,1,1h1v4H19c-0.552,0-1,0.447-1,1v4h-2c-0.552,0-1,0.447-1,1v6  c0,0.553,0.448,1,1,1h2v3h-4c-0.552,0-1,0.447-1,1v3h-1c-0.552,0-1,0.447-1,1v4C11,57.553,11.448,58,12,58z M25,56h-2v-2h2V56z   M41,56h-2v-2h2V56z M51,56h-2v-2h2V56z M47,43h-4v-4h4V43z M29.63,23.578c-0.208-0.073-0.41-0.157-0.61-0.252  c-0.8-0.375-1.705-0.228-2.307,0.375l-0.37,0.37l-1.415-1.414l0.37-0.37c0.595-0.595,0.745-1.522,0.375-2.308  c-0.094-0.198-0.179-0.403-0.253-0.612C25.126,18.55,24.365,18,23.524,18H23v-2h0.524c0.841,0,1.603-0.55,1.896-1.367  c0.075-0.209,0.16-0.414,0.253-0.611c0.371-0.786,0.221-1.714-0.374-2.309l-0.37-0.37l1.415-1.414l0.37,0.37  c0.602,0.603,1.507,0.751,2.309,0.374c0.198-0.094,0.4-0.178,0.611-0.252C30.463,10.122,31,9.378,31,8.524V8h2v0.524  c0,0.854,0.537,1.598,1.37,1.897c0.208,0.073,0.41,0.157,0.61,0.252c0.8,0.375,1.705,0.227,2.307-0.375l0.37-0.37l1.415,1.414  l-0.37,0.37c-0.595,0.595-0.745,1.522-0.375,2.308c0.094,0.198,0.179,0.403,0.253,0.612C38.874,15.45,39.635,16,40.476,16H41v2  h-0.524c-0.841,0-1.603,0.55-1.896,1.367c-0.075,0.209-0.16,0.414-0.253,0.611c-0.371,0.786-0.221,1.714,0.374,2.309l0.37,0.37  l-1.415,1.414l-0.37-0.37c-0.602-0.604-1.507-0.752-2.309-0.374c-0.198,0.094-0.4,0.178-0.611,0.252  C33.537,23.878,33,24.622,33,25.476V26h-2v-0.524C31,24.622,30.463,23.878,29.63,23.578z M17,39h4v4h-4V39z M13,54h2v2h-2V54z"/>
    <path d="M56,2H8C7.448,2,7,2.447,7,3v58c0,0.553,0.448,1,1,1h48c0.552,0,1-0.447,1-1V3C57,2.447,56.552,2,56,2z M55,60H9V4h46V60z"/>
</svg>