<svg xmlns="http://www.w3.org/2000/svg"
    xmlns:xlink="http://www.w3.org/1999/xlink" version="1.1" x="0px" y="0px" viewBox="0 0 120 150" style="enable-background:new 0 0 120 120;" xml:space="preserve">
    <path d="M64.7,31.57c0.37,0,0.74-0.1,1.08-0.32c0.93-0.6,1.2-1.83,0.6-2.76c-0.2-0.32-0.31-0.68-0.31-1.06  c0-1.08,0.88-1.96,1.96-1.96c0.52,0,1.02,0.2,1.39,0.58c0.78,0.78,2.05,0.78,2.83,0c0.78-0.78,0.78-2.05,0-2.83  c-1.13-1.13-2.63-1.75-4.22-1.75c-3.29,0-5.96,2.68-5.96,5.96c0,1.15,0.33,2.26,0.94,3.22C63.39,31.25,64.04,31.57,64.7,31.57z"/>
    <path d="M104.47,86.21c0.6,0.01,1.13-0.21,1.52-0.63c0.39-0.42,0.59-0.98,0.54-1.56c-0.16-1.74-0.56-3.44-1.18-5.05  c-0.21-0.53-0.63-0.95-1.17-1.15c-0.54-0.2-1.13-0.16-1.64,0.11c-1,0.54-2.25,0.24-2.91-0.68c-0.66-0.92-0.54-2.2,0.29-2.97  c0.42-0.39,0.65-0.94,0.63-1.52c-0.02-0.57-0.28-1.11-0.72-1.48c-1.36-1.14-2.85-2.06-4.41-2.75c-0.53-0.23-1.13-0.23-1.65,0.01  c-0.52,0.24-0.92,0.69-1.08,1.24c-0.33,1.09-1.43,1.77-2.54,1.59c-1.12-0.18-1.94-1.18-1.9-2.31c0.02-0.57-0.21-1.13-0.63-1.52  c-0.42-0.39-0.98-0.58-1.56-0.54c-0.29,0.03-0.57,0.07-0.85,0.11L70.98,47.76h11.3c1.1,0,2-0.9,2-2V17.51c0-1.1-0.9-2-2-2H37.95  c-1.1,0-2,0.9-2,2v28.25c0,1.1,0.9,2,2,2h11.3L34.56,67.73c-0.09,0.12-0.16,0.25-0.22,0.37c-1.71-0.31-3.66-0.51-5.82-0.51  c-9.66,0-14.1,3.38-14.29,3.53c-0.49,0.38-0.77,0.96-0.77,1.58v25.72c0,0.65,0.32,1.23,0.8,1.59c0.12,0.17,0.27,0.32,0.45,0.45  c0.2,0.14,4.97,3.44,15.38,3.44c5.21,0,9.25-1.01,11.74-1.85c0.34-0.12,0.62-0.32,0.84-0.57c0.55-0.36,0.92-0.97,0.92-1.68v-9.06  h26.06c0.17,0.6,0.35,1.2,0.57,1.78c0.21,0.53,0.63,0.95,1.17,1.15c0.54,0.2,1.13,0.16,1.64-0.11c1-0.54,2.25-0.25,2.91,0.68  c0.66,0.92,0.54,2.2-0.29,2.97c-0.42,0.39-0.65,0.94-0.63,1.52c0.02,0.57,0.28,1.11,0.72,1.48c1.36,1.14,2.85,2.06,4.41,2.75  c0.53,0.23,1.13,0.23,1.65-0.01c0.52-0.24,0.92-0.69,1.08-1.24c0.33-1.09,1.41-1.77,2.54-1.59c1.12,0.18,1.93,1.18,1.9,2.31  c-0.02,0.57,0.21,1.13,0.63,1.52c0.37,0.35,0.86,0.54,1.37,0.54c0.06,0,0.12,0,0.19-0.01c1.74-0.16,3.44-0.56,5.05-1.19  c0.54-0.21,0.96-0.63,1.15-1.17c0.2-0.54,0.16-1.13-0.11-1.64c-0.54-1-0.24-2.25,0.68-2.91c0.92-0.66,2.2-0.54,2.97,0.29  c0.39,0.42,0.96,0.64,1.52,0.63c0.57-0.02,1.11-0.28,1.48-0.72c1.14-1.36,2.06-2.85,2.75-4.41c0.23-0.53,0.23-1.13-0.01-1.65  c-0.24-0.52-0.69-0.91-1.24-1.08c-1.09-0.33-1.77-1.42-1.59-2.54C102.34,86.99,103.36,86.17,104.47,86.21z M74.93,43.76l-7.2-6.52  l7-5l5.56,3.58v7.94H74.93z M80.28,19.51v11.56l-4.53-2.92c-0.69-0.44-1.58-0.42-2.25,0.05l-8.81,6.29l-9.7-8.78  c-0.69-0.63-1.73-0.69-2.49-0.15L39.95,34.4V19.51H80.28z M39.95,39.29l13.55-9.54l15.47,14H39.95V39.29z M17.47,76.45  c2.33,0.91,5.96,1.85,11.06,1.85c4.86,0,8.64-1.03,11.06-1.96v9.08c-2.22,0.67-5.46,1.34-9.5,1.34c-7.31,0-11.35-1.78-12.63-2.46  V76.45z M37.19,72.95c-2.06,0.68-5.01,1.35-8.67,1.35c-4.12,0-7.09-0.68-9.03-1.36c1.93-0.67,4.9-1.35,9.03-1.35  C32.2,71.59,35.13,72.26,37.19,72.95z M17.47,97.45v-8.75c2.45,0.96,6.58,2.08,12.63,2.08c3.86,0,7.07-0.55,9.5-1.19v8.98  c-2.22,0.67-5.46,1.34-9.5,1.34C22.79,99.9,18.75,98.13,17.47,97.45z M71.1,85.28c-0.6-0.02-1.13,0.21-1.52,0.63  c-0.22,0.24-0.37,0.53-0.46,0.83H43.59V72.69c0-0.68-0.35-1.32-0.93-1.69c-0.11-0.07-1.59-0.99-4.19-1.86l15.74-21.39h11.79  l15.02,20.42c-0.01,0-0.02,0.01-0.03,0.01c-0.54,0.21-0.96,0.63-1.15,1.17c-0.2,0.54-0.16,1.14,0.12,1.64  c0.54,1,0.25,2.25-0.67,2.92c-0.92,0.66-2.2,0.54-2.98-0.29c-0.39-0.42-0.95-0.65-1.52-0.63c-0.57,0.02-1.11,0.28-1.48,0.72  c-1.11,1.33-2.03,2.81-2.74,4.42c-0.23,0.52-0.23,1.12,0.01,1.65c0.24,0.52,0.69,0.92,1.24,1.08c1.09,0.33,1.77,1.42,1.58,2.54  C73.23,84.5,72.2,85.32,71.1,85.28z M98.21,87.46C98.21,87.46,98.21,87.46,98.21,87.46c-0.38,2.29,0.56,4.54,2.28,5.92  c-0.08,0.12-0.15,0.25-0.23,0.37c-2-0.94-4.43-0.77-6.32,0.58c-1.88,1.35-2.81,3.6-2.57,5.79c-0.14,0.04-0.29,0.07-0.43,0.1  c-0.76-2.08-2.59-3.67-4.87-4.05c-0.34-0.06-0.68-0.08-1.01-0.08c-1.93,0-3.73,0.89-4.91,2.37c-0.13-0.08-0.25-0.15-0.37-0.23  c0.94-2,0.77-4.43-0.58-6.32c-1.35-1.88-3.6-2.81-5.79-2.57c-0.04-0.14-0.07-0.28-0.1-0.43c2.08-0.76,3.67-2.59,4.05-4.87  c0.38-2.29-0.56-4.54-2.28-5.92c0.08-0.13,0.15-0.25,0.23-0.37c2,0.94,4.43,0.77,6.32-0.58c1.89-1.35,2.82-3.6,2.57-5.8  c0.14-0.03,0.28-0.07,0.43-0.1c0.75,2.08,2.59,3.68,4.88,4.06c2.29,0.38,4.54-0.56,5.92-2.28c0.13,0.08,0.25,0.15,0.37,0.23  c-0.93,2-0.77,4.43,0.58,6.32c1.35,1.88,3.59,2.81,5.79,2.57c0.04,0.14,0.07,0.29,0.1,0.43C100.18,83.34,98.58,85.17,98.21,87.46z"/>
    <path d="M88.87,79.12c-3.64-0.59-7.11,1.88-7.72,5.54c-0.6,3.65,1.88,7.11,5.54,7.72c0.37,0.06,0.74,0.09,1.1,0.09  c1.39,0,2.75-0.43,3.9-1.26c1.46-1.05,2.42-2.6,2.71-4.37C95.01,83.18,92.53,79.72,88.87,79.12z M90.46,86.19  c-0.12,0.72-0.51,1.34-1.1,1.77c-0.59,0.42-1.31,0.59-2.02,0.47c-1.48-0.24-2.48-1.64-2.24-3.12c0.22-1.33,1.37-2.28,2.68-2.28  c0.15,0,0.29,0.01,0.44,0.04C89.7,83.31,90.71,84.71,90.46,86.19z"/>
</svg>