<svg xmlns="http://www.w3.org/2000/svg"
    xmlns:xlink="http://www.w3.org/1999/xlink" version="1.1" x="0px" y="0px" viewBox="0 0 170 212.5" enable-background="new 0 0 170 170" xml:space="preserve">
    <g>
        <path d="M146.177,65.883c-3.272,0-6.353,0.829-9.049,2.283l-35.294-35.294c1.455-2.696,2.283-5.777,2.283-9.049   c0-10.541-8.576-19.117-19.117-19.117s-19.117,8.576-19.117,19.117c0,3.272,0.829,6.353,2.283,9.049L32.872,68.166   c-2.696-1.455-5.777-2.283-9.049-2.283C13.282,65.883,4.706,74.459,4.706,85s8.576,19.117,19.117,19.117   c3.272,0,6.353-0.829,9.049-2.283l35.294,35.294c-1.455,2.696-2.283,5.777-2.283,9.049c0,10.541,8.576,19.117,19.117,19.117   s19.117-8.576,19.117-19.117c0-3.272-0.829-6.353-2.283-9.049l35.294-35.294c2.696,1.455,5.777,2.283,9.049,2.283   c10.541,0,19.117-8.576,19.117-19.117S156.718,65.883,146.177,65.883z M85,127.059c-3.644,0-7.041,1.043-9.942,2.82L40.121,94.942   c0.932-1.522,1.655-3.18,2.134-4.942h24.314c2.206,8.12,9.622,14.117,18.431,14.117S101.225,98.12,103.431,90h24.314   c0.479,1.762,1.202,3.42,2.134,4.942l-34.936,34.936C92.041,128.102,88.644,127.059,85,127.059z M85,42.941   c3.644,0,7.041-1.043,9.942-2.82l34.936,34.936c-0.932,1.522-1.655,3.18-2.134,4.942h-24.314   C101.225,71.88,93.809,65.883,85,65.883S68.775,71.88,66.569,80H42.255c-0.479-1.762-1.202-3.42-2.134-4.942l34.936-34.936   C77.959,41.898,81.356,42.941,85,42.941z M94.117,85c0,5.027-4.09,9.117-9.117,9.117s-9.117-4.09-9.117-9.117   s4.09-9.117,9.117-9.117S94.117,79.973,94.117,85z M85,14.706c5.027,0,9.117,4.09,9.117,9.117s-4.09,9.118-9.117,9.118   s-9.117-4.091-9.117-9.118S79.973,14.706,85,14.706z M14.706,85c0-5.027,4.09-9.117,9.117-9.117s9.118,4.09,9.118,9.117   s-4.091,9.117-9.118,9.117S14.706,90.027,14.706,85z M85,155.294c-5.027,0-9.117-4.09-9.117-9.117s4.09-9.118,9.117-9.118   s9.117,4.091,9.117,9.118S90.027,155.294,85,155.294z M146.177,94.117c-5.027,0-9.118-4.09-9.118-9.117s4.091-9.117,9.118-9.117   s9.117,4.09,9.117,9.117S151.204,94.117,146.177,94.117z"/>
    </g>
</svg>